# xmcd
#
# Track frame offsets: 
#        150
#        13007
#        29181
#        47943
#        67801
#        88799
#        106939
#        119609
#        137071
#        157039
#        170408
#        185466
#
# Disc length: 2742 seconds
#
# Revision: 0
# Processed by: cddbd v1.5.2PL0 Copyright (c) Steve Scherf et al.
# Submitted via: ExactAudioCopy v1.0b3
#
DISCID=a80ab40c
DTITLE=Amy Winehouse - Lioness: Hidden TReasures
DYEAR=2011
DGENRE=
TTITLE0=Our Day Will Come
TTITLE1=Between the Cheats
TTITLE2=Tears Dry (Original Version)
TTITLE3=Will You Still Love Me Tomorrow?
TTITLE4=Like Smoke (featuring Nas)
TTITLE5=Valerie ('68 Version)
TTITLE6=The Girl from Ipanema
TTITLE7=Half Time
TTITLE8=Wake Up Alone (Original Recording)
TTITLE9=Best Friends, Right?
TTITLE10=Body and Soul
TTITLE11=A Song for You
EXTD=
EXTT0=
EXTT1=
EXTT2=
EXTT3=
EXTT4=
EXTT5=
EXTT6=
EXTT7=
EXTT8=
EXTT9=
EXTT10=
EXTT11=
PLAYORDER=
